<?xml version="1.0" standalone="no"?>
<!DOCTYPE svg PUBLIC "-//W3C//DTD SVG 20010904//EN"
 "http://www.w3.org/TR/2001/REC-SVG-20010904/DTD/svg10.dtd">
<svg version="1.0" xmlns="http://www.w3.org/2000/svg"
 width="24.000000pt" height="24.000000pt" viewBox="0 0 24.000000 24.000000"
 preserveAspectRatio="xMidYMid meet">
<metadata>
Created by potrace 1.16, written by Peter Selinger 2001-2019
</metadata>
<g transform="translate(0.000000,24.000000) scale(0.100000,-0.100000)"
fill="#000000" stroke="none">
<path d="M0 213 c1 -24 2 -25 11 -11 5 10 17 22 27 27 14 9 13 10 -10 11 -24
0 -28 -4 -28 -27z"/>
<path d="M202 229 c10 -5 22 -17 27 -27 9 -14 10 -13 11 11 0 23 -4 27 -27 27
-24 -1 -25 -2 -11 -11z"/>
<path d="M37 202 c-25 -27 -24 -143 1 -165 27 -25 143 -24 165 1 25 27 24 143
-1 165 -27 25 -143 24 -165 -1z m154 -25 c-13 -13 -26 -3 -16 12 3 6 11 8 17
5 6 -4 6 -10 -1 -17z m-29 -14 c22 -20 23 -61 1 -85 -34 -38 -103 -11 -103 40
0 54 62 81 102 45z"/>
<path d="M90 145 c-26 -32 13 -81 48 -59 22 14 27 41 12 59 -16 19 -44 19 -60
0z"/>
<path d="M0 28 c0 -24 4 -28 28 -28 23 1 24 2 10 11 -10 5 -22 17 -27 27 -9
14 -10 13 -11 -10z"/>
<path d="M213 24 l-22 -24 24 0 c20 0 25 5 25 25 0 29 1 29 -27 -1z"/>
</g>
</svg>
